<mxfile host="Electron" modified="2025-09-08T04:37:17.380Z" agent="Mozilla/5.0 (Windows NT 10.0; Win64; x64) AppleWebKit/537.36 (KHTML, like Gecko) draw.io/24.1.0 Chrome/120.0.6099.109 Electron/28.1.0 Safari/537.36" etag="pv_80BxhcR3tNXnyWXgl" version="24.1.0" type="device" pages="2">
  <diagram id="vk7e_t2W6H_vMbFvaL3z" name="Plan">
    <mxGraphModel dx="864" dy="1616" grid="1" gridSize="10" guides="1" tooltips="1" connect="1" arrows="1" fold="1" page="1" pageScale="1" pageWidth="850" pageHeight="1100" math="0" shadow="0">
      <root>
        <mxCell id="0" />
        <mxCell id="1" parent="0" />
        <mxCell id="NMSXKjy4qVHQltRTeJKQ-1" value="&lt;p style=&quot;font-size: 18px;&quot; class=&quot;MsoNormal&quot;&gt;&lt;font face=&quot;Times New Roman&quot; style=&quot;font-size: 18px;&quot;&gt;&lt;u style=&quot;&quot;&gt;Functionalities:&lt;/u&gt;&lt;/font&gt;&lt;/p&gt;&lt;p style=&quot;font-size: 18px;&quot; class=&quot;MsoNormal&quot;&gt;&lt;/p&gt;&lt;ul style=&quot;font-size: 18px;&quot;&gt;&lt;li&gt;&lt;span style=&quot;background-color: initial;&quot;&gt;&lt;font face=&quot;QwyiDqv8YqwGyNbi1khy&quot; style=&quot;font-size: 18px;&quot;&gt;To enable admin add, edit and delete products&lt;br&gt;&lt;/font&gt;&lt;/span&gt;&lt;/li&gt;&lt;li&gt;&lt;span style=&quot;background-color: initial;&quot;&gt;&lt;font face=&quot;QwyiDqv8YqwGyNbi1khy&quot; style=&quot;font-size: 18px;&quot;&gt;To enable customers order for products&lt;/font&gt;&lt;/span&gt;&lt;/li&gt;&lt;li&gt;&lt;span style=&quot;background-color: initial;&quot;&gt;&lt;font face=&quot;QwyiDqv8YqwGyNbi1khy&quot; style=&quot;font-size: 18px;&quot;&gt;To enable customers pay for products&lt;/font&gt;&lt;/span&gt;&lt;/li&gt;&lt;li&gt;&lt;span style=&quot;background-color: initial;&quot;&gt;&lt;font face=&quot;QwyiDqv8YqwGyNbi1khy&quot; style=&quot;font-size: 18px;&quot;&gt;To enable customers get notified about order placement&lt;/font&gt;&lt;/span&gt;&lt;/li&gt;&lt;li&gt;&lt;span style=&quot;background-color: initial;&quot;&gt;&lt;font face=&quot;QwyiDqv8YqwGyNbi1khy&quot;&gt;To enable admin get notified about order placement&lt;/font&gt;&lt;/span&gt;&lt;/li&gt;&lt;li&gt;&lt;font style=&quot;font-size: 18px;&quot; face=&quot;QwyiDqv8YqwGyNbi1khy&quot;&gt;To enable admin receive orders&lt;/font&gt;&lt;/li&gt;&lt;li&gt;&lt;font style=&quot;font-size: 18px;&quot; face=&quot;QwyiDqv8YqwGyNbi1khy&quot;&gt;To enable admin send out products for delivery&lt;/font&gt;&lt;/li&gt;&lt;/ul&gt;&lt;p&gt;&lt;/p&gt;" style="text;html=1;align=left;verticalAlign=middle;whiteSpace=wrap;rounded=0;strokeColor=default;" parent="1" vertex="1">
          <mxGeometry x="40" width="480" height="240" as="geometry" />
        </mxCell>
        <mxCell id="o3TDcIaPNiApx4bm9Wqv-1" value="&lt;p style=&quot;font-size: 18px;&quot; class=&quot;MsoNormal&quot;&gt;&lt;font face=&quot;Times New Roman&quot; style=&quot;font-size: 18px;&quot;&gt;&lt;u style=&quot;&quot;&gt;Overview:&lt;/u&gt;&lt;/font&gt;&lt;/p&gt;&lt;p style=&quot;font-size: 18px;&quot; class=&quot;MsoNormal&quot;&gt;&lt;/p&gt;&lt;ul style=&quot;font-size: 18px;&quot;&gt;&lt;li&gt;&lt;font face=&quot;QwyiDqv8YqwGyNbi1khy&quot;&gt;E-commerce website for MBJ food store to enable buying and selling of products&lt;/font&gt;&lt;/li&gt;&lt;/ul&gt;&lt;p&gt;&lt;/p&gt;" style="text;html=1;align=left;verticalAlign=middle;whiteSpace=wrap;rounded=0;strokeColor=default;" parent="1" vertex="1">
          <mxGeometry x="40" y="-280" width="480" height="240" as="geometry" />
        </mxCell>
      </root>
    </mxGraphModel>
  </diagram>
  <diagram id="LsaEVsU3KUnhH0hSSCoS" name="Architecture Schema">
    <mxGraphModel dx="1440" dy="1960" grid="1" gridSize="10" guides="1" tooltips="1" connect="1" arrows="1" fold="1" page="1" pageScale="1" pageWidth="850" pageHeight="1100" math="0" shadow="0">
      <root>
        <mxCell id="0" />
        <mxCell id="1" parent="0" />
        <mxCell id="HpZ6Nr5oTAsWi6I-z4j7-3" value="" style="rounded=0;whiteSpace=wrap;html=1;fillColor=none;" parent="1" vertex="1">
          <mxGeometry x="160" y="120" width="640" height="400" as="geometry" />
        </mxCell>
        <mxCell id="v3E_79zq7MJOzCWJQV08-9" style="edgeStyle=orthogonalEdgeStyle;rounded=0;orthogonalLoop=1;jettySize=auto;html=1;exitX=0.75;exitY=0;exitDx=0;exitDy=0;entryX=0.75;entryY=1;entryDx=0;entryDy=0;strokeColor=#006600;" parent="1" source="HpZ6Nr5oTAsWi6I-z4j7-1" target="v3E_79zq7MJOzCWJQV08-2" edge="1">
          <mxGeometry relative="1" as="geometry" />
        </mxCell>
        <mxCell id="HpZ6Nr5oTAsWi6I-z4j7-1" value="API Management Gateway" style="rounded=1;whiteSpace=wrap;html=1;" parent="1" vertex="1">
          <mxGeometry x="160" y="40" width="640" height="40" as="geometry" />
        </mxCell>
        <mxCell id="HpZ6Nr5oTAsWi6I-z4j7-2" value="Intra -service communication hub" style="rounded=1;whiteSpace=wrap;html=1;" parent="1" vertex="1">
          <mxGeometry x="200" y="160" width="560" height="40" as="geometry" />
        </mxCell>
        <mxCell id="HpZ6Nr5oTAsWi6I-z4j7-4" value="Data repository hub" style="rounded=1;whiteSpace=wrap;html=1;" parent="1" vertex="1">
          <mxGeometry x="200" y="400" width="560" height="40" as="geometry" />
        </mxCell>
        <mxCell id="HpZ6Nr5oTAsWi6I-z4j7-5" value="Backend microservices" style="text;html=1;align=center;verticalAlign=middle;whiteSpace=wrap;rounded=0;strokeColor=default;" parent="1" vertex="1">
          <mxGeometry x="160" y="120" width="160" height="30" as="geometry" />
        </mxCell>
        <mxCell id="HpZ6Nr5oTAsWi6I-z4j7-6" value="Product service" style="swimlane;whiteSpace=wrap;html=1;" parent="1" vertex="1">
          <mxGeometry x="400" y="210" width="160" height="70" as="geometry" />
        </mxCell>
        <mxCell id="HpZ6Nr5oTAsWi6I-z4j7-7" value="User service" style="swimlane;whiteSpace=wrap;html=1;" parent="1" vertex="1">
          <mxGeometry x="200" y="210" width="160" height="70" as="geometry" />
        </mxCell>
        <mxCell id="HpZ6Nr5oTAsWi6I-z4j7-8" value="Admin, Customer, Delivery" style="text;html=1;align=center;verticalAlign=middle;whiteSpace=wrap;rounded=0;strokeColor=default;" parent="HpZ6Nr5oTAsWi6I-z4j7-7" vertex="1">
          <mxGeometry y="30" width="160" height="30" as="geometry" />
        </mxCell>
        <mxCell id="HpZ6Nr5oTAsWi6I-z4j7-9" value="Cart service" style="swimlane;whiteSpace=wrap;html=1;" parent="1" vertex="1">
          <mxGeometry x="600" y="210" width="160" height="70" as="geometry" />
        </mxCell>
        <mxCell id="HpZ6Nr5oTAsWi6I-z4j7-11" value="Payment service" style="swimlane;whiteSpace=wrap;html=1;" parent="1" vertex="1">
          <mxGeometry x="200" y="320" width="160" height="70" as="geometry" />
        </mxCell>
        <mxCell id="HpZ6Nr5oTAsWi6I-z4j7-13" value="Delivery service" style="swimlane;whiteSpace=wrap;html=1;" parent="1" vertex="1">
          <mxGeometry x="400" y="320" width="160" height="70" as="geometry" />
        </mxCell>
        <mxCell id="v3E_79zq7MJOzCWJQV08-6" style="edgeStyle=orthogonalEdgeStyle;rounded=0;orthogonalLoop=1;jettySize=auto;html=1;exitX=0.5;exitY=1;exitDx=0;exitDy=0;" parent="1" source="v3E_79zq7MJOzCWJQV08-2" target="HpZ6Nr5oTAsWi6I-z4j7-1" edge="1">
          <mxGeometry relative="1" as="geometry" />
        </mxCell>
        <mxCell id="v3E_79zq7MJOzCWJQV08-2" value="" style="rounded=0;whiteSpace=wrap;html=1;" parent="1" vertex="1">
          <mxGeometry x="160" y="-80" width="640" height="80" as="geometry" />
        </mxCell>
        <mxCell id="v3E_79zq7MJOzCWJQV08-10" style="edgeStyle=orthogonalEdgeStyle;rounded=0;orthogonalLoop=1;jettySize=auto;html=1;exitX=1;exitY=0.5;exitDx=0;exitDy=0;strokeColor=#006600;" parent="1" source="v3E_79zq7MJOzCWJQV08-3" edge="1">
          <mxGeometry relative="1" as="geometry">
            <mxPoint x="450" y="-140" as="targetPoint" />
          </mxGeometry>
        </mxCell>
        <mxCell id="v3E_79zq7MJOzCWJQV08-3" value="Frontend" style="text;html=1;align=center;verticalAlign=middle;whiteSpace=wrap;rounded=0;strokeColor=default;" parent="1" vertex="1">
          <mxGeometry x="160" y="-80" width="160" height="30" as="geometry" />
        </mxCell>
        <mxCell id="v3E_79zq7MJOzCWJQV08-4" value="User" style="shape=umlActor;verticalLabelPosition=bottom;verticalAlign=top;html=1;outlineConnect=0;" parent="1" vertex="1">
          <mxGeometry x="440" y="-220" width="30" height="60" as="geometry" />
        </mxCell>
        <mxCell id="v3E_79zq7MJOzCWJQV08-5" style="edgeStyle=orthogonalEdgeStyle;rounded=0;orthogonalLoop=1;jettySize=auto;html=1;exitX=0.5;exitY=0.5;exitDx=0;exitDy=0;exitPerimeter=0;entryX=0.588;entryY=-0.033;entryDx=0;entryDy=0;entryPerimeter=0;" parent="1" source="v3E_79zq7MJOzCWJQV08-4" target="v3E_79zq7MJOzCWJQV08-3" edge="1">
          <mxGeometry relative="1" as="geometry" />
        </mxCell>
        <mxCell id="v3E_79zq7MJOzCWJQV08-7" style="edgeStyle=orthogonalEdgeStyle;rounded=0;orthogonalLoop=1;jettySize=auto;html=1;exitX=0.5;exitY=1;exitDx=0;exitDy=0;entryX=0.638;entryY=0.067;entryDx=0;entryDy=0;entryPerimeter=0;" parent="1" source="HpZ6Nr5oTAsWi6I-z4j7-1" target="HpZ6Nr5oTAsWi6I-z4j7-5" edge="1">
          <mxGeometry relative="1" as="geometry" />
        </mxCell>
        <mxCell id="v3E_79zq7MJOzCWJQV08-8" style="edgeStyle=orthogonalEdgeStyle;rounded=0;orthogonalLoop=1;jettySize=auto;html=1;exitX=1;exitY=0.5;exitDx=0;exitDy=0;entryX=0.777;entryY=1;entryDx=0;entryDy=0;entryPerimeter=0;strokeColor=#006600;" parent="1" source="HpZ6Nr5oTAsWi6I-z4j7-5" target="HpZ6Nr5oTAsWi6I-z4j7-1" edge="1">
          <mxGeometry relative="1" as="geometry" />
        </mxCell>
      </root>
    </mxGraphModel>
  </diagram>
</mxfile>
